<?xml version="1.0" standalone="no"?>
<!DOCTYPE svg PUBLIC "-//W3C//DTD SVG 20010904//EN"
 "http://www.w3.org/TR/2001/REC-SVG-20010904/DTD/svg10.dtd">
<svg version="1.0" xmlns="http://www.w3.org/2000/svg"
 width="592.000000pt" height="592.000000pt" viewBox="0 0 592.000000 592.000000"
 preserveAspectRatio="xMidYMid meet">
<metadata>
Created by potrace 1.11, written by Peter Selinger 2001-2013
</metadata>
<g transform="translate(0.000000,592.000000) scale(0.100000,-0.100000)"
fill="#000000" stroke="none">
<path d="M3517 5915 c-1 -2 -31 -6 -67 -9 -36 -4 -74 -9 -85 -11 -11 -3 -31
-7 -45 -9 -161 -27 -413 -117 -580 -208 -72 -39 -230 -136 -240 -148 -3 -3
-41 -32 -84 -65 -43 -33 -127 -107 -186 -165 -184 -182 -319 -366 -430 -589
-51 -103 -132 -312 -144 -374 -3 -12 -11 -53 -19 -92 -30 -138 -39 -230 -39
-393 0 -68 2 -125 4 -127 5 -5 86 -19 173 -31 28 -3 52 -7 55 -9 3 -2 29 -6
58 -10 l52 -6 1 48 c2 162 16 268 65 500 15 71 72 224 123 328 264 535 776
916 1349 1001 20 3 48 7 61 9 12 2 60 7 105 11 44 3 84 9 88 13 8 7 21 181 22
286 l1 50 -118 1 c-64 0 -118 0 -120 -1z"/>
<path d="M1335 5526 c-293 -321 -473 -720 -529 -1171 -14 -108 -15 -370 -2
-485 35 -307 86 -489 206 -735 102 -210 187 -330 351 -499 l97 -100 118 87
c66 48 130 96 143 106 l23 18 -77 84 c-257 280 -403 552 -474 884 -27 120 -35
214 -35 365 1 463 140 845 436 1196 37 45 68 85 68 90 0 5 -10 20 -22 34 -13
14 -52 59 -88 100 -117 137 -114 136 -215 26z"/>
<path d="M3887 5124 c-1 -1 -29 -5 -62 -8 -470 -52 -906 -256 -1212 -566 -46
-46 -83 -88 -83 -92 0 -14 202 -279 210 -276 4 2 47 40 96 85 49 45 111 99
139 120 27 21 56 43 63 50 24 23 187 120 262 155 71 34 256 103 303 112 12 3
31 7 42 10 78 19 182 37 250 44 124 14 341 7 455 -13 14 -3 43 -7 65 -11 163
-23 445 -130 604 -229 73 -45 170 -116 239 -175 46 -38 88 -70 94 -70 12 0
107 81 203 172 l60 58 -60 58 c-269 261 -644 457 -1015 531 -30 6 -66 14 -80
16 -14 3 -45 8 -70 11 -25 3 -58 8 -75 11 -29 5 -423 12 -428 7z"/>
<path d="M3713 4308 c-16 -20 -27 -82 -48 -265 l-7 -63 39 0 c167 -2 312 -21
511 -65 69 -16 221 -73 317 -120 348 -168 647 -457 824 -797 77 -148 160 -389
175 -512 3 -21 8 -46 10 -55 6 -19 16 -112 21 -190 2 -29 5 -55 7 -57 4 -3 88
-10 255 -19 l102 -6 -4 23 c-2 13 -6 75 -9 138 -3 63 -8 124 -10 135 -2 11 -7
43 -11 70 -11 78 -13 85 -34 170 -65 260 -204 556 -358 758 -160 210 -359 399
-563 534 -176 117 -437 235 -569 258 -19 3 -37 8 -41 10 -6 4 -130 31 -187 41
-13 2 -35 7 -50 10 -16 3 -103 8 -194 10 -127 3 -169 1 -176 -8z"/>
<path d="M4 3624 c3 -82 8 -160 11 -174 2 -13 7 -42 10 -65 14 -97 67 -295
100 -370 7 -16 16 -41 20 -55 11 -35 82 -183 124 -255 36 -63 121 -196 131
-205 3 -3 24 -30 47 -60 128 -167 293 -325 478 -456 263 -187 616 -328 896
-360 30 -3 65 -8 79 -10 48 -8 283 -5 292 4 8 8 31 135 54 300 l6 42 -99 1
c-54 0 -105 2 -113 3 -8 2 -46 6 -85 10 -189 17 -424 85 -595 171 -212 108
-456 304 -595 480 -22 27 -45 56 -52 63 -30 31 -127 190 -172 279 -65 131
-126 304 -147 423 -3 14 -7 32 -9 40 -3 8 -7 33 -10 55 -4 22 -8 51 -11 65 -2
14 -7 63 -10 110 -4 47 -8 87 -11 90 -2 2 -18 5 -36 6 -18 1 -95 5 -171 9
l-139 7 7 -148z"/>
<path d="M4303 3292 l-141 -106 75 -80 c139 -149 247 -303 331 -472 42 -84
106 -243 117 -294 2 -8 11 -46 20 -85 57 -235 59 -545 6 -798 -62 -295 -222
-607 -430 -837 -38 -42 -51 -70 -33 -70 4 0 56 -56 115 -124 60 -69 114 -123
120 -120 14 6 194 227 260 319 81 111 183 299 213 390 2 6 18 50 35 99 31 89
85 309 95 389 3 23 9 59 14 79 4 20 8 135 8 255 1 226 -8 321 -48 493 -11 52
-23 102 -25 111 -2 9 -20 65 -40 125 -103 303 -272 569 -501 785 l-49 47 -142
-106z"/>
<path d="M3959 2188 c0 -102 -8 -203 -19 -268 -5 -30 -12 -71 -15 -90 -3 -19
-13 -62 -21 -95 -9 -33 -17 -67 -19 -75 -24 -106 -132 -335 -223 -470 -310
-465 -787 -755 -1337 -816 -87 -10 -107 -12 -135 -13 -20 -1 -26 -6 -26 -23
-1 -20 -14 -272 -16 -287 0 -3 0 -16 1 -29 1 -24 -2 -24 141 -7 19 2 64 7 100
10 36 4 77 9 92 11 15 2 48 6 72 9 222 22 561 163 833 347 359 242 685 669
822 1075 35 105 66 227 75 294 4 25 8 57 11 70 18 112 23 365 8 380 -5 5 -31
12 -58 15 -28 3 -93 12 -145 20 -150 22 -140 26 -141 -58z"/>
<path d="M3135 1723 c-16 -14 -52 -47 -80 -72 -289 -272 -685 -450 -1055 -477
-71 -5 -306 -5 -345 1 -16 2 -57 7 -90 10 -33 4 -73 10 -90 15 -16 5 -43 11
-60 14 -93 15 -281 85 -419 156 -114 58 -213 124 -331 220 -60 48 -96 70 -115
70 -20 0 -55 -25 -138 -101 -62 -55 -112 -106 -112 -113 0 -7 21 -33 48 -57
343 -319 723 -501 1177 -564 97 -14 440 -14 560 -1 28 3 77 8 110 12 67 7 68
7 147 23 32 7 59 12 60 11 2 -1 57 18 123 41 302 105 566 266 754 458 87 90
96 104 80 133 -18 34 -180 248 -188 248 -3 0 -19 -12 -36 -27z"/>
</g>
</svg>
